<svg version="1.1" id="Layer_1" xmlns="http://www.w3.org/2000/svg" xmlns:xlink="http://www.w3.org/1999/xlink" x="0px" y="0px"
	 width="100%" viewBox="0 0 335 341" enable-background="new 0 0 335 341" xml:space="preserve">
<path fill="#010101" opacity="1.000000" stroke="none" 
	d="
M213.000000,342.000000 
	C142.000015,342.000000 71.500023,342.000000 1.000028,342.000000 
	C1.000019,228.333359 1.000019,114.666733 1.000009,1.000074 
	C112.666618,1.000049 224.333237,1.000049 335.999878,1.000025 
	C335.999939,114.666595 335.999939,228.333191 335.999969,341.999878 
	C295.166656,342.000000 254.333328,342.000000 213.000000,342.000000 
M130.201843,182.891846 
	C129.266479,182.891846 128.331116,182.891846 128.135651,182.891846 
	C129.013306,184.902771 130.441330,186.685486 130.474594,188.493835 
	C130.682526,199.800507 130.694977,211.115265 130.462616,222.421005 
	C130.424637,224.269180 128.851959,226.085815 128.049118,227.788696 
	C128.789963,227.788696 130.416061,227.788696 132.936142,227.909073 
	C135.943756,227.868881 138.951355,227.828690 142.841278,227.988373 
	C145.243332,227.878281 147.645401,227.768188 150.818573,227.742599 
	C152.780258,227.396591 154.785690,227.207581 156.695587,226.675644 
	C162.877716,224.953827 166.052200,220.665298 165.747437,214.653198 
	C165.423874,208.270569 160.884125,205.856613 154.679825,204.186996 
	C156.382446,203.309601 157.198196,202.884872 158.017746,202.467636 
	C162.237488,200.319382 163.876129,196.811081 163.446579,192.201385 
	C163.012054,187.538467 160.027252,185.112015 155.865372,184.073669 
	C153.327545,183.440491 150.637329,183.418076 147.194199,182.917252 
	C145.791794,182.971420 144.389374,183.025604 142.077148,182.939423 
	C138.392609,182.985611 134.708069,183.031799 130.201843,182.891846 
M174.967987,227.913345 
	C178.295792,227.888779 181.623596,227.864212 185.820724,228.058060 
	C187.908524,227.951706 189.996307,227.845352 192.862534,227.772888 
	C195.131271,227.322800 197.464722,227.076981 199.656067,226.382614 
	C205.246368,224.611221 207.950729,220.927338 208.012939,215.417587 
	C208.074432,209.973862 205.034546,206.888077 200.215790,205.158768 
	C199.407394,204.868668 198.583786,204.620956 197.030899,204.112625 
	C198.819916,203.187546 199.821350,202.699722 200.794724,202.161209 
	C204.986176,199.842438 206.231033,196.138885 205.615341,191.637100 
	C205.014954,187.247223 202.041733,184.802795 198.072556,184.100632 
	C193.790436,183.343124 189.362488,183.409988 184.086716,182.941986 
	C179.894226,183.008408 175.701736,183.073853 171.509918,183.170441 
	C171.489960,183.170914 171.433868,183.624664 171.486221,183.844986 
	C171.510559,183.947388 171.754791,183.997528 172.394897,184.888657 
	C172.491547,197.698257 172.691086,210.509003 172.550034,223.315994 
	C172.533081,224.855957 170.670090,226.375595 169.705246,227.840103 
	C170.818069,227.840103 172.441269,227.840103 174.967987,227.913345 
M89.518265,138.808914 
	C143.977478,138.808914 198.437607,138.661285 252.894791,138.993820 
	C259.783020,139.035858 263.628357,136.256546 266.813049,131.160187 
	C263.513977,125.329308 259.121826,123.051727 252.203857,123.090561 
	C196.080978,123.405647 139.954575,123.422630 83.832108,123.072113 
	C76.784279,123.028091 73.330643,126.285851 70.220802,130.977646 
	C73.495880,137.233734 78.220154,140.065872 85.035484,138.837585 
	C86.164604,138.634094 87.361908,138.808914 89.518265,138.808914 
M175.499893,268.768646 
	C205.662949,268.768646 235.825989,268.771729 265.989044,268.759460 
	C267.482361,268.758850 269.154846,269.014893 270.415222,268.435913 
	C271.532532,267.922668 272.656036,266.496246 272.870697,265.309052 
	C272.990204,264.648163 271.342712,263.039612 270.349243,262.904419 
	C261.970978,261.764526 253.570587,260.168243 245.156342,260.038391 
	C226.569550,259.751587 208.062561,260.435791 189.446213,262.219757 
	C168.550644,264.222168 147.306610,263.410400 126.288994,260.094788 
	C118.484184,258.863586 110.303520,259.547546 102.327713,259.977966 
	C90.571335,260.612396 78.838844,261.738098 67.115387,262.856049 
	C65.984756,262.963867 64.989357,264.489838 63.931183,265.357513 
	C64.960548,266.461029 65.803169,267.977753 67.072075,268.551208 
	C68.328293,269.118958 70.014572,268.764130 71.512230,268.764374 
	C105.841446,268.769897 140.170654,268.768646 175.499893,268.768646 
M117.500107,273.289185 
	C99.186279,273.289185 80.872002,273.225922 62.559090,273.355377 
	C59.719364,273.375427 54.981403,271.790833 54.884399,276.280884 
	C54.783470,280.952667 59.580658,279.385895 62.398540,279.389191 
	C133.156433,279.472168 203.914459,279.472412 274.672333,279.388062 
	C277.472717,279.384735 282.192047,280.973480 282.103455,276.189667 
	C282.024719,271.938721 277.539581,273.350067 274.833557,273.346069 
	C222.722504,273.269257 170.611298,273.289215 117.500107,273.289185 
M171.525681,60.700134 
	C171.525620,60.034130 171.581589,59.362495 171.515396,58.703133 
	C171.282806,56.386585 172.402969,52.982395 168.668335,52.871918 
	C164.486679,52.748215 165.541931,56.392200 165.491913,58.838661 
	C165.370132,64.794884 165.452240,70.755272 165.452240,76.525330 
	C149.301880,82.054771 140.821579,91.162827 141.945450,101.317116 
	C159.792206,101.317116 177.627594,101.317116 195.967117,101.317116 
	C193.202316,87.369812 184.978104,79.634010 171.525620,76.742096 
	C171.525620,71.586792 171.525620,66.619896 171.525681,60.700134 
M217.691040,155.602692 
	C217.691040,159.384155 217.691040,163.165619 217.691040,167.087936 
	C224.134521,167.087936 230.019928,167.087936 235.705124,167.087936 
	C235.982864,166.620926 236.134247,166.484451 236.136337,166.345703 
	C236.196426,162.352554 236.016754,158.337540 236.397934,154.376328 
	C236.553970,152.754837 237.917114,151.249512 238.731094,149.691330 
	C239.862625,151.037918 241.470825,152.210999 242.036057,153.763733 
	C243.716843,158.380814 247.081406,160.900681 251.445312,159.974731 
	C255.541794,159.105515 257.754791,156.362656 257.888550,152.212128 
	C258.020081,148.130936 254.896194,144.592697 250.296555,144.525772 
	C234.649811,144.298157 218.995697,144.289566 203.349075,144.518280 
	C198.607834,144.587585 195.809464,147.892014 195.702377,152.138031 
	C195.601456,156.139328 198.555786,159.570557 202.517807,160.053650 
	C206.806931,160.576599 209.965714,158.197174 211.511978,153.847260 
	C212.074524,152.264771 213.599060,151.024261 214.684677,149.627716 
	C215.686447,151.302475 216.688217,152.977234 217.691040,155.602692 
M79.146553,151.695724 
	C79.836876,157.223099 82.128502,159.925415 86.483688,160.082733 
	C91.191414,160.252762 93.762772,157.769012 95.052162,153.328629 
	C95.458061,151.930832 97.079483,150.885986 98.144577,149.679611 
	C98.992058,151.215927 100.441307,152.703476 100.570526,154.298004 
	C100.913643,158.532028 100.687012,162.812241 100.687012,167.420944 
	C104.337807,167.420944 107.311951,167.420929 110.286095,167.420929 
	C113.363266,167.420929 116.440437,167.420944 119.788261,167.420944 
	C119.788261,162.446930 119.599724,158.283066 119.886772,154.152267 
	C119.992508,152.630630 121.220474,151.186996 121.936584,149.707779 
	C123.195374,150.944733 125.029266,151.959473 125.608627,153.458939 
	C127.605301,158.626617 130.701782,161.054108 135.220505,159.944962 
	C139.284698,158.947357 141.367752,156.133194 141.262405,151.921127 
	C141.154068,147.589447 137.993011,144.450455 132.946030,144.396454 
	C117.797661,144.234283 102.645752,144.275040 87.496567,144.399796 
	C83.275711,144.434555 80.173729,146.434723 79.146553,151.695724 
M208.694550,117.077728 
	C204.981567,109.766556 199.707977,106.577240 190.871613,107.080490 
	C175.114365,107.977890 159.269287,107.332924 143.460938,107.332924 
	C134.972778,107.332924 131.765396,109.562424 128.525330,117.791740 
	C155.164261,117.791740 181.761688,117.791740 208.694550,117.077728 
M230.860321,234.901276 
	C232.500809,234.901276 234.141296,234.901276 235.887451,234.901276 
	C235.887451,217.905380 235.887451,201.208664 235.887451,184.454788 
	C233.749878,184.454788 231.962646,184.454788 230.084885,184.454788 
	C230.084885,201.286346 230.084885,217.907028 230.860321,234.901276 
M107.227699,221.477234 
	C107.227699,209.193207 107.227699,196.909180 107.227699,184.548172 
	C104.884872,184.548172 102.982841,184.548172 100.987854,184.548172 
	C100.987854,201.435104 100.987854,218.016632 100.987854,234.706970 
	C103.124176,234.706970 105.036201,234.706970 107.227570,234.706970 
	C107.227570,230.429657 107.227570,226.447235 107.227699,221.477234 
M224.054886,195.526489 
	C224.054886,191.912369 224.054886,188.298248 224.054886,184.587524 
	C221.678131,184.587524 219.816254,184.587524 217.823151,184.587524 
	C217.823151,201.492645 217.823151,218.053589 217.823151,234.656189 
	C219.944931,234.656189 221.832260,234.656189 224.054886,234.656189 
	C224.054886,221.713379 224.054886,209.115250 224.054886,195.526489 
M112.945129,202.500854 
	C112.945129,213.236664 112.945129,223.972458 112.945129,234.812805 
	C115.392021,234.812805 117.175720,234.812805 119.074326,234.812805 
	C119.074326,217.930191 119.074326,201.240479 119.074326,184.473480 
	C116.992111,184.473480 115.226921,184.473480 112.945129,184.473480 
	C112.945129,190.293900 112.945129,195.897797 112.945129,202.500854 
M91.171509,113.463310 
	C90.432648,114.634796 89.693787,115.806282 88.607384,117.528816 
	C94.964432,117.528816 100.457634,117.528816 105.949295,117.528816 
	C105.978096,116.924706 106.100632,116.557083 105.987022,116.289848 
	C105.731880,115.689697 105.499725,114.845627 105.013496,114.613533 
	C99.188660,111.833115 100.412659,106.557716 100.349846,101.731583 
	C100.336906,100.737007 100.665276,99.542923 100.229195,98.794594 
	C99.573387,97.669197 98.370140,96.101791 97.421707,96.116806 
	C96.424904,96.132584 94.755936,97.691109 94.605583,98.749481 
	C94.189568,101.678123 94.715157,104.743546 94.271194,107.664101 
	C93.992363,109.498367 92.637009,111.168991 91.171509,113.463310 
M235.888626,117.811455 
	C239.792633,117.811455 243.696625,117.811455 248.235306,117.811455 
	C247.420776,116.142052 247.231537,114.870338 246.554382,114.506378 
	C241.189957,111.623047 242.056534,106.660103 242.098297,101.924866 
	C242.109940,100.603073 242.221344,99.154655 241.733749,97.997421 
	C241.362030,97.115158 240.035767,95.976143 239.278824,96.073723 
	C238.214813,96.210884 236.951599,97.198044 236.395187,98.175529 
	C235.882492,99.076241 236.170670,100.443726 236.140808,101.606483 
	C236.017136,106.421143 237.414017,111.694595 231.824463,114.793304 
	C231.203979,115.137276 231.135849,116.477577 230.643341,117.811371 
	C232.413345,117.811371 233.720276,117.811371 235.888626,117.811455 
M221.575302,172.991272 
	C218.961853,172.991272 216.348389,172.991272 213.452042,172.991272 
	C213.452042,175.018188 213.452042,176.570679 213.452042,178.401031 
	C222.369476,178.401031 231.055969,178.401031 239.824295,178.401031 
	C239.824295,176.569244 239.824295,174.879166 239.824295,172.991272 
	C233.812439,172.991272 228.184753,172.991272 221.575302,172.991272 
M112.469513,178.678162 
	C116.075523,178.678162 119.681534,178.678162 123.555771,178.678162 
	C123.555771,176.608551 123.555771,175.056824 123.555771,173.247894 
	C114.620575,173.247894 105.931450,173.247894 97.184967,173.247894 
	C97.184967,175.157349 97.184967,176.854584 97.184967,178.678131 
	C102.213013,178.678131 106.848518,178.678131 112.469513,178.678162 
M124.501411,250.422195 
	C115.571693,250.255875 106.641060,249.983643 97.713440,250.060959 
	C96.630608,250.070343 95.564087,251.963974 93.654472,253.778076 
	C105.322937,253.778076 115.398865,253.778076 125.708305,253.778076 
	C125.391060,252.724243 125.156120,251.943832 124.501411,250.422195 
M217.750061,249.975830 
	C215.103119,250.177872 211.421494,248.694061 211.600845,253.807220 
	C221.785583,253.807220 231.858658,253.807220 241.931717,253.807220 
	C242.150864,253.375488 242.370010,252.943771 242.589157,252.512039 
	C241.091949,251.655457 239.622620,250.123016 238.092667,250.059860 
	C231.635483,249.793442 225.160248,249.964859 217.750061,249.975830 
M94.032608,242.299591 
	C94.779808,242.806900 95.522408,243.747635 96.274910,243.755630 
	C105.546799,243.854126 114.820602,243.854980 124.092293,243.744904 
	C124.885132,243.735489 125.666451,242.754349 127.646400,241.421097 
	C115.468445,241.421097 104.849831,241.421097 94.032608,242.299591 
M215.912506,243.834869 
	C220.550934,243.834869 225.189346,243.834869 229.827774,243.834869 
	C241.176849,243.834869 241.176849,243.834869 242.978210,241.584290 
	C232.129318,241.584290 221.440353,241.584290 210.751373,241.584290 
	C210.715164,242.087082 210.678940,242.589874 210.642731,243.092667 
	C212.105606,243.340057 213.568466,243.587448 215.912506,243.834869 
z"/>
<path fill="#E4E4E4" opacity="1.000000" stroke="none" 
	d="
M89.022980,138.808914 
	C87.361908,138.808914 86.164604,138.634094 85.035484,138.837585 
	C78.220154,140.065872 73.495880,137.233734 70.220802,130.977646 
	C73.330643,126.285851 76.784279,123.028091 83.832108,123.072113 
	C139.954575,123.422630 196.080978,123.405647 252.203857,123.090561 
	C259.121826,123.051727 263.513977,125.329308 266.813049,131.160187 
	C263.628357,136.256546 259.783020,139.035858 252.894791,138.993820 
	C198.437607,138.661285 143.977478,138.808914 89.022980,138.808914 
M134.500153,128.380203 
	C129.167374,128.380188 123.834595,128.379791 118.501816,128.380249 
	C107.169655,128.381226 95.837402,128.359070 84.505386,128.400894 
	C81.765137,128.410995 79.019661,129.032944 80.672791,132.598618 
	C81.145622,133.618469 83.830170,134.016541 85.501434,134.018677 
	C140.828979,134.089371 196.156723,134.103683 251.483978,133.959045 
	C253.289001,133.954330 255.089493,132.205215 256.892090,131.269257 
	C255.090805,130.306381 253.343872,129.210907 251.463806,128.440216 
	C250.607712,128.089279 249.488434,128.380188 248.488541,128.380188 
	C210.825745,128.380188 173.162964,128.380234 134.500153,128.380203 
z"/>
<path fill="#F1F1F1" opacity="1.000000" stroke="none" 
	d="
M174.999878,268.768646 
	C140.170654,268.768646 105.841446,268.769897 71.512230,268.764374 
	C70.014572,268.764130 68.328293,269.118958 67.072075,268.551208 
	C65.803169,267.977753 64.960548,266.461029 63.931183,265.357513 
	C64.989357,264.489838 65.984756,262.963867 67.115387,262.856049 
	C78.838844,261.738098 90.571335,260.612396 102.327713,259.977966 
	C110.303520,259.547546 118.484184,258.863586 126.288994,260.094788 
	C147.306610,263.410400 168.550644,264.222168 189.446213,262.219757 
	C208.062561,260.435791 226.569550,259.751587 245.156342,260.038391 
	C253.570587,260.168243 261.970978,261.764526 270.349243,262.904419 
	C271.342712,263.039612 272.990204,264.648163 272.870697,265.309052 
	C272.656036,266.496246 271.532532,267.922668 270.415222,268.435913 
	C269.154846,269.014893 267.482361,268.758850 265.989044,268.759460 
	C235.825989,268.771729 205.662949,268.768646 174.999878,268.768646 
z"/>
<path fill="#EAEAEA" opacity="1.000000" stroke="none" 
	d="
M118.000107,273.289185 
	C170.611298,273.289215 222.722504,273.269257 274.833557,273.346069 
	C277.539581,273.350067 282.024719,271.938721 282.103455,276.189667 
	C282.192047,280.973480 277.472717,279.384735 274.672333,279.388062 
	C203.914459,279.472412 133.156433,279.472168 62.398540,279.389191 
	C59.580658,279.385895 54.783470,280.952667 54.884399,276.280884 
	C54.981403,271.790833 59.719364,273.375427 62.559090,273.355377 
	C80.872002,273.225922 99.186279,273.289185 118.000107,273.289185 
z"/>
<path fill="#F5F5F5" opacity="1.000000" stroke="none" 
	d="
M171.525650,61.176567 
	C171.525620,66.619896 171.525620,71.586792 171.525620,76.742096 
	C184.978104,79.634010 193.202316,87.369812 195.967117,101.317116 
	C177.627594,101.317116 159.792206,101.317116 141.945450,101.317116 
	C140.821579,91.162827 149.301880,82.054771 165.452240,76.525330 
	C165.452240,70.755272 165.370132,64.794884 165.491913,58.838661 
	C165.541931,56.392200 164.486679,52.748215 168.668335,52.871918 
	C172.402969,52.982395 171.282806,56.386585 171.515396,58.703133 
	C171.581589,59.362495 171.525620,60.034130 171.525650,61.176567 
z"/>
<path fill="#F3F3F3" opacity="1.000000" stroke="none" 
	d="
M217.690506,155.127350 
	C216.688217,152.977234 215.686447,151.302475 214.684677,149.627716 
	C213.599060,151.024261 212.074524,152.264771 211.511978,153.847260 
	C209.965714,158.197174 206.806931,160.576599 202.517807,160.053650 
	C198.555786,159.570557 195.601456,156.139328 195.702377,152.138031 
	C195.809464,147.892014 198.607834,144.587585 203.349075,144.518280 
	C218.995697,144.289566 234.649811,144.298157 250.296555,144.525772 
	C254.896194,144.592697 258.020081,148.130936 257.888550,152.212128 
	C257.754791,156.362656 255.541794,159.105515 251.445312,159.974731 
	C247.081406,160.900681 243.716843,158.380814 242.036057,153.763733 
	C241.470825,152.210999 239.862625,151.037918 238.731110,149.691345 
	C237.917114,151.249512 236.553970,152.754837 236.397934,154.376328 
	C236.016754,158.337540 236.196426,162.352554 236.136337,166.345703 
	C236.134247,166.484451 235.982864,166.620926 235.705124,167.087936 
	C230.019928,167.087936 224.134521,167.087936 217.691040,167.087936 
	C217.691040,163.165619 217.691040,159.384155 217.690506,155.127350 
z"/>
<path fill="#F2F2F2" opacity="1.000000" stroke="none" 
	d="
M79.199539,151.306274 
	C80.173729,146.434723 83.275711,144.434555 87.496567,144.399796 
	C102.645752,144.275040 117.797661,144.234283 132.946030,144.396454 
	C137.993011,144.450455 141.154068,147.589447 141.262405,151.921127 
	C141.367752,156.133194 139.284698,158.947357 135.220505,159.944962 
	C130.701782,161.054108 127.605301,158.626617 125.608627,153.458939 
	C125.029266,151.959473 123.195374,150.944733 121.936584,149.707779 
	C121.220474,151.186996 119.992508,152.630630 119.886772,154.152267 
	C119.599724,158.283066 119.788261,162.446930 119.788261,167.420944 
	C116.440437,167.420944 113.363266,167.420929 110.286095,167.420929 
	C107.311951,167.420929 104.337807,167.420944 100.687012,167.420944 
	C100.687012,162.812241 100.913643,158.532028 100.570526,154.298004 
	C100.441307,152.703476 98.992058,151.215927 98.144577,149.679611 
	C97.079483,150.885986 95.458061,151.930832 95.052162,153.328629 
	C93.762772,157.769012 91.191414,160.252762 86.483688,160.082733 
	C82.128502,159.925415 79.836876,157.223099 79.199539,151.306274 
z"/>
<path fill="#EBEBEB" opacity="1.000000" stroke="none" 
	d="
M208.526825,117.434738 
	C181.761688,117.791740 155.164261,117.791740 128.525330,117.791740 
	C131.765396,109.562424 134.972778,107.332924 143.460938,107.332924 
	C159.269287,107.332924 175.114365,107.977890 190.871613,107.080490 
	C199.707977,106.577240 204.981567,109.766556 208.526825,117.434738 
z"/>
<path fill="#F3F3F3" opacity="1.000000" stroke="none" 
	d="
M184.998154,183.117233 
	C189.362488,183.409988 193.790436,183.343124 198.072556,184.100632 
	C202.041733,184.802795 205.014954,187.247223 205.615341,191.637100 
	C206.231033,196.138885 204.986176,199.842438 200.794724,202.161209 
	C199.821350,202.699722 198.819916,203.187546 197.030899,204.112625 
	C198.583786,204.620956 199.407394,204.868668 200.215790,205.158768 
	C205.034546,206.888077 208.074432,209.973862 208.012939,215.417587 
	C207.950729,220.927338 205.246368,224.611221 199.656067,226.382614 
	C197.464722,227.076981 195.131271,227.322800 192.448624,227.445129 
	C191.997543,226.703934 191.960373,226.290497 192.159286,225.602890 
	C192.978836,224.353546 193.774857,223.446533 194.112793,222.392639 
	C197.336823,212.338150 194.283844,205.854355 185.986435,204.750427 
	C185.977936,204.516098 185.984268,204.047195 186.372025,204.012115 
	C190.982285,203.992065 192.671432,201.454437 192.920395,197.665741 
	C193.083557,195.182739 193.169647,192.669189 192.976898,190.193726 
	C192.593124,185.265396 190.593430,183.870132 185.210007,184.180298 
	C185.077972,183.592804 185.038055,183.355011 184.998154,183.117233 
z"/>
<path fill="#FFFFFF" opacity="1.000000" stroke="none" 
	d="
M184.542435,183.029602 
	C185.038055,183.355011 185.077972,183.592804 185.277985,184.599594 
	C185.620132,191.594803 185.802200,197.820999 185.984253,204.047195 
	C185.984268,204.047195 185.977936,204.516098 185.801453,205.170044 
	C185.628479,212.687607 185.631989,219.551254 185.425568,226.752396 
	C185.127548,227.339828 185.039474,227.589737 184.951401,227.839645 
	C181.623596,227.864212 178.295792,227.888779 174.459534,227.421173 
	C173.952316,214.170990 174.022858,201.412125 173.864136,188.656113 
	C173.845016,187.119949 172.584473,185.599228 171.899338,184.071350 
	C171.754791,183.997528 171.510559,183.947388 171.486221,183.844986 
	C171.433868,183.624664 171.489960,183.170914 171.509918,183.170441 
	C175.701736,183.073853 179.894226,183.008408 184.542435,183.029602 
z"/>
<path fill="#F3F3F3" opacity="1.000000" stroke="none" 
	d="
M148.015564,183.121338 
	C150.637329,183.418076 153.327545,183.440491 155.865372,184.073669 
	C160.027252,185.112015 163.012054,187.538467 163.446579,192.201385 
	C163.876129,196.811081 162.237488,200.319382 158.017746,202.467636 
	C157.198196,202.884872 156.382446,203.309601 154.679825,204.186996 
	C160.884125,205.856613 165.423874,208.270569 165.747437,214.653198 
	C166.052200,220.665298 162.877716,224.953827 156.695587,226.675644 
	C154.785690,227.207581 152.780258,227.396591 150.439178,227.396378 
	C150.015610,226.647263 149.971436,226.244385 150.116074,225.535492 
	C154.825409,217.565186 153.328262,208.468506 147.008209,204.683197 
	C152.156128,198.983261 152.550262,189.230942 147.905975,184.033112 
	C147.985367,183.529236 148.000473,183.325287 148.015564,183.121338 
z"/>
<path fill="#FFFFFF" opacity="1.000000" stroke="none" 
	d="
M141.958969,227.788498 
	C138.951355,227.828690 135.943756,227.868881 132.472656,227.393936 
	C131.998718,214.218750 132.028366,201.558395 131.935410,188.898941 
	C131.921143,186.956497 131.341629,185.018188 131.023529,183.077972 
	C134.708069,183.031799 138.392609,182.985611 142.571564,183.331909 
	C143.122879,183.933258 143.179764,184.142120 143.212158,184.796143 
	C143.320755,192.167664 143.453857,199.094055 143.396942,206.451355 
	C143.164764,213.250443 143.122574,219.618607 142.826172,226.113647 
	C142.367645,226.756516 142.163315,227.272507 141.958969,227.788498 
z"/>
<path fill="#EEEEEE" opacity="1.000000" stroke="none" 
	d="
M230.472595,234.714478 
	C230.084885,217.907028 230.084885,201.286346 230.084885,184.454788 
	C231.962646,184.454788 233.749878,184.454788 235.887451,184.454788 
	C235.887451,201.208664 235.887451,217.905380 235.887451,234.901276 
	C234.141296,234.901276 232.500809,234.901276 230.472595,234.714478 
z"/>
<path fill="#EEEEEE" opacity="1.000000" stroke="none" 
	d="
M107.227631,221.971039 
	C107.227570,226.447235 107.227570,230.429657 107.227570,234.706970 
	C105.036201,234.706970 103.124176,234.706970 100.987854,234.706970 
	C100.987854,218.016632 100.987854,201.435104 100.987854,184.548172 
	C102.982841,184.548172 104.884872,184.548172 107.227699,184.548172 
	C107.227699,196.909180 107.227699,209.193207 107.227631,221.971039 
z"/>
<path fill="#EEEEEE" opacity="1.000000" stroke="none" 
	d="
M224.054886,196.021805 
	C224.054886,209.115250 224.054886,221.713379 224.054886,234.656189 
	C221.832260,234.656189 219.944931,234.656189 217.823151,234.656189 
	C217.823151,218.053589 217.823151,201.492645 217.823151,184.587524 
	C219.816254,184.587524 221.678131,184.587524 224.054886,184.587524 
	C224.054886,188.298248 224.054886,191.912369 224.054886,196.021805 
z"/>
<path fill="#EEEEEE" opacity="1.000000" stroke="none" 
	d="
M112.945129,202.001266 
	C112.945129,195.897797 112.945129,190.293900 112.945129,184.473480 
	C115.226921,184.473480 116.992111,184.473480 119.074326,184.473480 
	C119.074326,201.240479 119.074326,217.930191 119.074326,234.812805 
	C117.175720,234.812805 115.392021,234.812805 112.945129,234.812805 
	C112.945129,223.972458 112.945129,213.236664 112.945129,202.001266 
z"/>
<path fill="#E3E3E3" opacity="1.000000" stroke="none" 
	d="
M91.468079,113.188171 
	C92.637009,111.168991 93.992363,109.498367 94.271194,107.664101 
	C94.715157,104.743546 94.189568,101.678123 94.605583,98.749481 
	C94.755936,97.691109 96.424904,96.132584 97.421707,96.116806 
	C98.370140,96.101791 99.573387,97.669197 100.229195,98.794594 
	C100.665276,99.542923 100.336906,100.737007 100.349846,101.731583 
	C100.412659,106.557716 99.188660,111.833115 105.013496,114.613533 
	C105.499725,114.845627 105.731880,115.689697 105.987022,116.289848 
	C106.100632,116.557083 105.978096,116.924706 105.949295,117.528816 
	C100.457634,117.528816 94.964432,117.528816 88.607384,117.528816 
	C89.693787,115.806282 90.432648,114.634796 91.468079,113.188171 
z"/>
<path fill="#E3E3E3" opacity="1.000000" stroke="none" 
	d="
M235.457916,117.811417 
	C233.720276,117.811371 232.413345,117.811371 230.643341,117.811371 
	C231.135849,116.477577 231.203979,115.137276 231.824463,114.793304 
	C237.414017,111.694595 236.017136,106.421143 236.140808,101.606483 
	C236.170670,100.443726 235.882492,99.076241 236.395187,98.175529 
	C236.951599,97.198044 238.214813,96.210884 239.278824,96.073723 
	C240.035767,95.976143 241.362030,97.115158 241.733749,97.997421 
	C242.221344,99.154655 242.109940,100.603073 242.098297,101.924866 
	C242.056534,106.660103 241.189957,111.623047 246.554382,114.506378 
	C247.231537,114.870338 247.420776,116.142052 248.235306,117.811455 
	C243.696625,117.811455 239.792633,117.811455 235.457916,117.811417 
z"/>
<path fill="#DBDBDB" opacity="1.000000" stroke="none" 
	d="
M222.066193,172.991272 
	C228.184753,172.991272 233.812439,172.991272 239.824295,172.991272 
	C239.824295,174.879166 239.824295,176.569244 239.824295,178.401031 
	C231.055969,178.401031 222.369476,178.401031 213.452042,178.401031 
	C213.452042,176.570679 213.452042,175.018188 213.452042,172.991272 
	C216.348389,172.991272 218.961853,172.991272 222.066193,172.991272 
z"/>
<path fill="#DBDBDB" opacity="1.000000" stroke="none" 
	d="
M111.976776,178.678146 
	C106.848518,178.678131 102.213013,178.678131 97.184967,178.678131 
	C97.184967,176.854584 97.184967,175.157349 97.184967,173.247894 
	C105.931450,173.247894 114.620575,173.247894 123.555771,173.247894 
	C123.555771,175.056824 123.555771,176.608551 123.555771,178.678162 
	C119.681534,178.678162 116.075523,178.678162 111.976776,178.678146 
z"/>
<path fill="#EBEBEB" opacity="1.000000" stroke="none" 
	d="
M124.711304,250.792816 
	C125.156120,251.943832 125.391060,252.724243 125.708305,253.778076 
	C115.398865,253.778076 105.322937,253.778076 93.654472,253.778076 
	C95.564087,251.963974 96.630608,250.070343 97.713440,250.060959 
	C106.641060,249.983643 115.571693,250.255875 124.711304,250.792816 
z"/>
<path fill="#EBEBEB" opacity="1.000000" stroke="none" 
	d="
M218.220825,249.975983 
	C225.160248,249.964859 231.635483,249.793442 238.092667,250.059860 
	C239.622620,250.123016 241.091949,251.655457 242.589157,252.512039 
	C242.370010,252.943771 242.150864,253.375488 241.931717,253.807220 
	C231.858658,253.807220 221.785583,253.807220 211.600845,253.807220 
	C211.421494,248.694061 215.103119,250.177872 218.220825,249.975983 
z"/>
<path fill="#D7D7D7" opacity="1.000000" stroke="none" 
	d="
M130.612701,182.984909 
	C131.341629,185.018188 131.921143,186.956497 131.935410,188.898941 
	C132.028366,201.558395 131.998718,214.218750 132.025665,227.333740 
	C130.416061,227.788696 128.789963,227.788696 128.049118,227.788696 
	C128.851959,226.085815 130.424637,224.269180 130.462616,222.421005 
	C130.694977,211.115265 130.682526,199.800507 130.474594,188.493835 
	C130.441330,186.685486 129.013306,184.902771 128.135651,182.891846 
	C128.331116,182.891846 129.266479,182.891846 130.612701,182.984909 
z"/>
<path fill="#DBDBDB" opacity="1.000000" stroke="none" 
	d="
M94.131912,241.860352 
	C104.849831,241.421097 115.468445,241.421097 127.646400,241.421097 
	C125.666451,242.754349 124.885132,243.735489 124.092293,243.744904 
	C114.820602,243.854980 105.546799,243.854126 96.274910,243.755630 
	C95.522408,243.747635 94.779808,242.806900 94.131912,241.860352 
z"/>
<path fill="#DBDBDB" opacity="1.000000" stroke="none" 
	d="
M215.471924,243.834869 
	C213.568466,243.587448 212.105606,243.340057 210.642731,243.092667 
	C210.678940,242.589874 210.715164,242.087082 210.751373,241.584290 
	C221.440353,241.584290 232.129318,241.584290 242.978210,241.584290 
	C241.176849,243.834869 241.176849,243.834869 229.827774,243.834869 
	C225.189346,243.834869 220.550934,243.834869 215.471924,243.834869 
z"/>
<path fill="#B5B5B5" opacity="1.000000" stroke="none" 
	d="
M172.147125,184.480011 
	C172.584473,185.599228 173.845016,187.119949 173.864136,188.656113 
	C174.022858,201.412125 173.952316,214.170990 174.007782,227.384552 
	C172.441269,227.840103 170.818069,227.840103 169.705246,227.840103 
	C170.670090,226.375595 172.533081,224.855957 172.550034,223.315994 
	C172.691086,210.509003 172.491547,197.698257 172.147125,184.480011 
z"/>
<path fill="#D7D7D7" opacity="1.000000" stroke="none" 
	d="
M142.400116,227.888428 
	C142.163315,227.272507 142.367645,226.756516 143.141174,226.277069 
	C145.782684,226.156219 147.854980,225.998856 149.927277,225.841492 
	C149.971436,226.244385 150.015610,226.647263 150.053619,227.354126 
	C147.645401,227.768188 145.243332,227.878281 142.400116,227.888428 
z"/>
<path fill="#B5B5B5" opacity="1.000000" stroke="none" 
	d="
M185.386063,227.948853 
	C185.039474,227.589737 185.127548,227.339828 185.769379,226.808411 
	C188.189819,226.310287 190.056519,226.093674 191.923218,225.877060 
	C191.960373,226.290497 191.997543,226.703934 192.059418,227.428192 
	C189.996307,227.845352 187.908524,227.951706 185.386063,227.948853 
z"/>
<path fill="#D7D7D7" opacity="1.000000" stroke="none" 
	d="
M143.236649,184.350983 
	C143.179764,184.142120 143.122879,183.933258 143.026474,183.402100 
	C144.389374,183.025604 145.791794,182.971420 147.604889,183.019287 
	C148.000473,183.325287 147.985367,183.529236 147.519592,184.030029 
	C145.791489,184.334900 144.514069,184.342941 143.236649,184.350983 
z"/>
<path fill="#171717" opacity="1.000000" stroke="none" 
	d="
M135.000153,128.380234 
	C173.162964,128.380234 210.825745,128.380188 248.488541,128.380188 
	C249.488434,128.380188 250.607712,128.089279 251.463806,128.440216 
	C253.343872,129.210907 255.090805,130.306381 256.892090,131.269257 
	C255.089493,132.205215 253.289001,133.954330 251.483978,133.959045 
	C196.156723,134.103683 140.828979,134.089371 85.501434,134.018677 
	C83.830170,134.016541 81.145622,133.618469 80.672791,132.598618 
	C79.019661,129.032944 81.765137,128.410995 84.505386,128.400894 
	C95.837402,128.359070 107.169655,128.381226 118.501816,128.380249 
	C123.834595,128.379791 129.167374,128.380188 135.000153,128.380234 
z"/>
<path fill="#0D0D0D" opacity="1.000000" stroke="none" 
	d="
M192.159286,225.602890 
	C190.056519,226.093674 188.189819,226.310287 185.979309,226.470886 
	C185.631989,219.551254 185.628479,212.687607 185.809967,205.404358 
	C194.283844,205.854355 197.336823,212.338150 194.112793,222.392639 
	C193.774857,223.446533 192.978836,224.353546 192.159286,225.602890 
z"/>
<path fill="#0D0D0D" opacity="1.000000" stroke="none" 
	d="
M186.372009,204.012115 
	C185.802200,197.820999 185.620132,191.594803 185.370087,184.949310 
	C190.593430,183.870132 192.593124,185.265396 192.976898,190.193726 
	C193.169647,192.669189 193.083557,195.182739 192.920395,197.665741 
	C192.671432,201.454437 190.982285,203.992065 186.372009,204.012115 
z"/>
<path fill="#171717" opacity="1.000000" stroke="none" 
	d="
M150.116074,225.535492 
	C147.854980,225.998856 145.782684,226.156219 143.395386,226.150192 
	C143.122574,219.618607 143.164764,213.250443 143.711853,206.447250 
	C145.138718,205.689224 146.060669,205.366226 146.982605,205.043213 
	C153.328262,208.468506 154.825409,217.565186 150.116074,225.535492 
z"/>
<path fill="#191919" opacity="1.000000" stroke="none" 
	d="
M147.008209,204.683212 
	C146.060669,205.366226 145.138718,205.689224 143.901855,206.016327 
	C143.453857,199.094055 143.320755,192.167664 143.212158,184.796143 
	C144.514069,184.342941 145.791489,184.334900 147.455292,184.329956 
	C152.550262,189.230942 152.156128,198.983261 147.008209,204.683212 
z"/>
</svg>