<svg version="1.1" id="Layer_1" xmlns="http://www.w3.org/2000/svg" xmlns:xlink="http://www.w3.org/1999/xlink" x="0px" y="0px"
	 width="100%" viewBox="0 0 623 622" enable-background="new 0 0 623 622" xml:space="preserve">
<path fill="#FFFFFF" opacity="1.000000" stroke="none" 
	d="
M356.000000,623.000000 
	C238.666687,623.000000 121.833359,622.980713 5.000156,623.095215 
	C1.576345,623.098572 0.903812,622.423767 0.905576,619.000000 
	C1.011041,414.333435 1.011048,209.666809 0.905608,5.000223 
	C0.903844,1.577009 1.575922,0.903802 4.999873,0.905564 
	C209.999786,1.011032 414.999725,1.011021 619.999634,0.905628 
	C623.422607,0.903868 624.096252,1.575558 624.094482,4.999762 
	C623.988953,209.666336 623.989014,414.332947 624.094360,618.999512 
	C624.096130,622.422241 623.425415,623.100647 620.000305,623.095886 
	C532.166992,622.974426 444.333466,623.000000 356.000000,623.000000 
z"/>
<path fill="#B23CB4" opacity="1.000000" stroke="none" 
	d="
M295.367950,569.730835 
	C269.916107,567.462341 245.450958,562.631897 222.223969,553.051575 
	C134.112061,516.708557 78.142769,452.292328 60.347725,358.528656 
	C42.670689,265.386871 70.403961,184.869690 138.853729,119.444466 
	C179.796036,80.311241 229.495209,58.229408 285.923615,51.814655 
	C397.100677,39.176109 503.425690,98.382607 551.010071,199.532150 
	C565.558167,230.456894 573.691895,263.041016 575.214111,297.235474 
	C580.190491,409.029785 515.977966,509.639160 412.732269,551.610413 
	C375.219452,566.860046 336.124695,572.250000 295.367950,569.730835 
z"/>
<path fill="#FEFEFE" opacity="1.000000" stroke="none" 
	d="
M219.042816,359.950867 
	C206.139877,349.150909 193.586914,338.481262 180.861313,328.021667 
	C178.248856,325.874390 177.884644,324.461395 180.185394,321.833466 
	C186.321701,314.824585 192.306488,307.675140 198.127518,300.402283 
	C200.340240,297.637726 201.868256,297.754395 204.470398,299.956573 
	C227.336746,319.307983 250.374298,338.457489 273.185394,357.873260 
	C276.386444,360.597839 277.738892,359.967926 280.166931,357.064087 
	C324.461487,304.090088 368.861877,251.204559 413.257324,198.314926 
	C417.330078,193.462921 417.352661,193.547272 422.206635,197.696732 
	C428.783752,203.319290 435.323364,208.993103 442.075043,214.400238 
	C444.545807,216.378952 444.923553,217.438522 442.665833,220.104446 
	C422.234985,244.229156 402.013092,268.530640 381.700378,292.755554 
	C349.734558,330.877899 317.745880,368.981018 285.767609,407.092926 
	C285.660797,407.220276 285.569885,407.360962 285.464111,407.489258 
	C281.102448,412.781311 281.036652,412.858368 275.803192,408.401886 
	C256.953247,392.350403 238.151566,376.242279 219.042816,359.950867 
z"/>
</svg>